<?xml version="1.0" encoding="UTF-8"?>
<svg xmlns="http://www.w3.org/2000/svg" xmlns:xlink="http://www.w3.org/1999/xlink" width="24pt" height="24pt" viewBox="0 0 24 24" version="1.1">
<g id="surface20054383">
<path style=" stroke:none;fill-rule:nonzero;fill:rgb(12.941177%,45.09804%,93.725491%);fill-opacity:1;" d="M 12 2.53125 C 6.789062 2.53125 2.53125 6.789062 2.53125 12 C 2.53125 17.210938 6.789062 21.46875 12 21.46875 C 17.210938 21.46875 21.46875 17.210938 21.46875 12 C 21.46875 6.789062 17.210938 2.53125 12 2.53125 Z M 12 3.65625 C 16.59375 3.65625 20.34375 7.40625 20.34375 12 C 20.34375 16.59375 16.59375 20.34375 12 20.34375 C 7.40625 20.34375 3.65625 16.59375 3.65625 12 C 3.65625 7.40625 7.40625 3.65625 12 3.65625 Z M 12 5.8125 C 11.679688 5.8125 11.4375 6.054688 11.4375 6.375 L 11.4375 11.023438 C 11.101562 11.210938 10.875 11.585938 10.875 12 C 10.875 12.617188 11.382812 13.125 12 13.125 C 12.414062 13.125 12.789062 12.898438 12.976562 12.5625 L 15.75 12.5625 C 16.070312 12.5625 16.3125 12.320312 16.3125 12 C 16.3125 11.679688 16.070312 11.4375 15.75 11.4375 L 12.976562 11.4375 C 12.882812 11.269531 12.730469 11.117188 12.5625 11.023438 L 12.5625 6.375 C 12.5625 6.054688 12.320312 5.8125 12 5.8125 Z M 12 5.8125 "/>
</g>
</svg>
